<?xml version="1.0" encoding="utf-8"?>
<!-- Generator: Adobe Illustrator 25.4.1, SVG Export Plug-In . SVG Version: 6.00 Build 0)  -->
<svg version="1.0" id="katman_1" xmlns="http://www.w3.org/2000/svg" xmlns:xlink="http://www.w3.org/1999/xlink" x="0px" y="0px"
	 viewBox="0 0 800 600" style="enable-background:new 0 0 800 600;" xml:space="preserve">
<style type="text/css">
	.st0{fill-rule:evenodd;clip-rule:evenodd;fill:#1D1D1B;}
</style>
<path class="st0" d="M611.7,299.6c0,21.8-17.1,33.3-38.2,33.3c-21.1,0-38.2-11.5-38.2-33.3c0-21.8,17.1-33.3,38.2-33.3
	C594.6,266.3,611.7,277.7,611.7,299.6z M597.2,299.6c0,13.4-10.6,20.5-23.7,20.5c-13.1,0-23.7-7.1-23.7-20.5
	c0-13.4,10.6-20.5,23.7-20.5C586.6,279.1,597.2,286.1,597.2,299.6z M292.4,334.1c17.7,0,30-7.2,30-19.4c0-10.9-9.2-15.8-27-19.2
	c-16.1-3-19.9-5.2-19.9-10.2c0-4.4,5-7.9,13.7-7.9c7.7,0,15.3,2.3,22.8,6.7l7.9-8.6c-8.5-5.3-18.3-8.2-30.5-8.2
	c-16.7,0-28.7,7.7-28.7,18.8c0,12.1,10.1,16.2,28,19.5c15.6,2.9,19,5.4,19,10c0,5.1-5.8,8.3-14.9,8.3c-10.4,0-18.5-3.1-26.5-8.4
	l-8.9,8.2C267.4,330.7,279.5,334.1,292.4,334.1z M253.1,330.5c-4.7,0-13.9-0.1-13.9-0.1l-6.9-14.2l-34.5,0.2l-6.9,13.4h-13.4
	l30.4-61.4h14c0,0,21.2,41.9,29.4,58.3c0.2,0.4,0.4,0.8,0.6,1.3l0,0l0,0C252.2,328.7,252.6,329.4,253.1,330.5z M215.5,282.5
	L215.5,282.5L215.5,282.5c-0.3,0-0.5,0-0.7,0c-0.2,0-0.4,0-0.5,0c-3.7,7.4-7.4,14.8-11.2,22.5l0,0h23.6l-0.1-0.1
	c-3.9-7.8-7.4-15.1-11-22.3L215.5,282.5L215.5,282.5L215.5,282.5z M397.5,330.6v-30.8v-31.3l-9.4,0l-3.4,0c0,0,0.2,14.5,0.1,21.3
	c0,1.3-0.1,3.3-0.1,3.3h-39.6v-2.9l0.1-21.7h-8.8l-4.1,0l-0.1,62.1h13v-3.4l-0.1-19.5l0.1-3.4h39.5l0,3.4l0,14.2l0,8.8H397.5z
	 M625.4,268.5l-12.8,0.1l21.7,62l14.4-0.1c5-15.5,15.4-46.4,15.4-46.4l14.9,46.5h14.8l21.3-62.1l-8.9,0l-4.1,0.3
	c-5.2,15.6-15.9,46.9-15.9,46.9l-15.6-47.1l-13.2,0c-1.1,3.3-2.1,6.7-3.2,10c-3.9,12-7.7,24-11.7,35.9L625.4,268.5z M407.9,299.4
	c0-9.1,0-27.2,0-27.2l0-3.7h59v3.9v7.2h-46.5l0,3.7v8l0,3.9H462v5.6v5.2h-41.6v5l0,19.6H417h-9.1
	C407.8,330.6,407.9,306.9,407.9,299.4z M478.2,268.5c0,0,0.1,22,0.1,31c0,8.9-0.1,26.7-0.1,26.7v4.3h50.2l6.1,0.1v-11.2h-4.1h-39.2
	l0-3.6v-47.4h-9.4H478.2z M85.7,313.4v-11.1c3,0,8.7-0.1,8.7-0.1h2.7l0.1-5.2c0,0-8.3-0.1-11.4-0.1v-11.1c2.3,0,7.1,0,7.1,0h4.3
	l-0.1-17.2h3.1h9.7v17.2c0,0,26.8-0.1,36,0c2.8,0,3.7,0,3.7,0l-0.1-17.2h3.2h9.4v17.1c2.9,0,11.4,0.1,11.4,0.1c0,0.3,0,11.1,0,11.1
	h-11.6v5.3l11.6,0.2v11.1h-11.4v17.3l-12.6-0.3l0.1-17l-3.3,0l-36.4,0c-0.1,5.7,0,11.3,0,17H99.2h-1.9l-0.1-17l-3.8,0
	C93.4,313.5,88.4,313.4,85.7,313.4z M137.9,302.2L137.9,302.2L137.9,302.2c4.2-0.1,8.6-0.1,11.8-0.1v-5.3c-11.1,0-39.7,0-39.7,0v5.4
	h19.6C131.9,302.3,134.9,302.2,137.9,302.2z"/>
</svg>
